<?xml version="1.0" standalone="yes"?>
<!DOCTYPE svg PUBLIC "-//W3C//DTD SVG 20010904//EN"
 "http://www.w3.org/TR/2001/REC-SVG-20010904/DTD/svg10.dtd">
<svg version="1.0" xmlns="http://www.w3.org/2000/svg"
 width="7257.000000pt" height="4082.000000pt" viewBox="0 0 7257.000000 4082.000000"
 preserveAspectRatio="xMidYMid meet" >
<rect width="100%" height="100%" fill="white">
</rect>
<g transform="translate(0.000000,4082.000000) scale(0.100000,-0.100000)"
fill="#000" stroke="none">
<path d="M42460 31773 c-1020 -28 -2301 -115 -3190 -218 -613 -71 -1818 -248
-1967 -289 -74 -20 -133 -55 -160 -95 -20 -29 -23 -47 -23 -120 0 -106 -13
-132 -106 -200 -141 -103 -346 -188 -507 -210 -104 -14 -355 -14 -398 0 -19 7
-45 21 -57 33 -25 22 -25 30 -6 148 9 56 -12 103 -79 175 -82 87 -232 185
-459 298 -453 226 -679 275 -1273 275 -774 0 -1240 -112 -1635 -393 -207 -148
-566 -558 -594 -678 -11 -51 16 -46 259 44 83 32 182 35 266 11 30 -9 117 -46
194 -84 222 -108 336 -136 504 -127 53 3 254 33 446 66 235 42 389 64 470 67
398 19 728 -161 728 -396 0 -44 -7 -69 -33 -119 -50 -93 -157 -181 -220 -181
-35 0 -84 59 -119 145 -80 196 -178 279 -306 262 -165 -23 -270 -196 -236
-389 15 -88 56 -186 94 -226 48 -50 86 -56 228 -36 101 15 135 16 199 6 102
-14 173 -40 250 -91 102 -65 158 -83 292 -89 271 -12 604 61 1490 324 1000
297 1914 519 4453 1084 2170 482 2597 579 3130 710 427 105 615 162 615 189 0
25 -208 62 -455 81 -280 21 -651 30 -1170 28 -291 -1 -573 -3 -625 -5z"/>
<path d="M42915 30539 c-765 -72 -3147 -414 -4070 -585 -622 -115 -1635 -379
-2230 -581 -186 -63 -366 -140 -379 -161 -9 -16 56 -84 120 -127 160 -106 86
-176 -716 -687 -831 -529 -1080 -704 -1080 -756 0 -41 242 31 524 155 1445
635 2502 998 6086 2088 1121 341 1949 603 2015 638 19 10 19 11 -5 18 -33 9
-153 8 -265 -2z"/>
<path d="M31215 28715 c-27 -64 -38 -317 -26 -575 22 -438 83 -729 226 -1081
300 -735 936 -1477 1820 -2124 373 -273 1363 -900 2650 -1678 1948 -1178 2615
-1637 3141 -2162 329 -328 522 -599 814 -1140 420 -776 623 -1354 704 -2000
40 -312 48 -479 53 -1053 7 -785 -16 -1446 -67 -1920 -28 -259 -43 -503 -32
-531 8 -22 10 -21 40 25 143 224 447 1185 576 1824 150 739 176 1493 75 2185
-133 913 -482 1759 -1024 2480 -427 568 -900 1001 -1606 1472 -570 380 -1202
750 -2639 1543 -1240 684 -1898 1065 -2435 1410 -511 329 -1018 798 -1365
1265 -377 505 -592 990 -750 1683 -51 225 -113 412 -136 412 -3 0 -12 -16 -19
-35z"/>
<path d="M34166 26513 c29 -120 186 -457 306 -655 339 -559 823 -953 1838
-1493 102 -54 433 -221 735 -370 1488 -735 2167 -1139 2736 -1628 386 -332
642 -628 1029 -1192 117 -170 238 -334 296 -400 l26 -30 -7 40 c-23 145 -173
538 -326 850 -226 464 -562 917 -1019 1376 -425 426 -688 630 -1145 886 -419
236 -1213 631 -2270 1130 -685 324 -879 433 -1211 680 -146 109 -293 234 -456
390 -232 220 -499 443 -529 443 -5 0 -6 -12 -3 -27z"/>
<path d="M36204 22192 c38 -73 214 -272 574 -650 254 -265 382 -405 547 -597
803 -933 1271 -1792 1590 -2918 157 -555 229 -977 277 -1612 17 -228 17 -962
0 -1170 -86 -1052 -356 -1796 -968 -2667 -236 -336 -499 -672 -990 -1263 -383
-462 -612 -753 -631 -801 -14 -36 60 0 212 104 355 242 905 722 1385 1208 318
322 498 535 738 874 998 1403 1321 2976 971 4725 -238 1195 -751 2220 -1565
3125 -227 253 -561 568 -844 796 -386 311 -1155 830 -1288 869 -23 7 -23 6 -8
-23z"/>
<path d="M37920 19187 c0 -5 -7 -63 -15 -130 -28 -236 -53 -684 -80 -1437 -43
-1200 -93 -1636 -265 -2315 -307 -1209 -809 -2277 -1507 -3206 -253 -336 -474
-590 -793 -910 -454 -455 -868 -794 -1415 -1158 -341 -227 -533 -341 -1038
-615 -440 -239 -659 -375 -606 -376 72 -1 799 246 1439 488 1292 489 2140 983
2809 1637 625 610 1064 1346 1406 2355 226 666 337 1174 404 1850 110 1099 69
2268 -105 3014 -71 303 -231 854 -234 803z"/>
<path d="M37312 16653 c-57 -81 -116 -227 -241 -597 -229 -673 -478 -1193
-845 -1761 -1116 -1730 -2976 -3083 -5350 -3894 -644 -220 -1249 -379 -2088
-550 -507 -104 -918 -207 -918 -232 0 -20 249 -38 625 -45 1371 -27 2840 237
4145 744 777 302 1522 705 2089 1132 965 726 1695 1693 2146 2845 183 467 307
939 404 1535 55 337 74 510 75 682 1 162 -7 190 -42 141z"/>
</g>
</svg>
