<svg width="258" height="31" viewBox="0 0 258 31" fill="none" xmlns="http://www.w3.org/2000/svg">
<mask maskUnits="userSpaceOnUse" x="0" y="0" width="0" height="0" fill="black">
<rect fill="white" width="0" height="0"/>
</mask>
<path d="M0 15.3733L20 26.9203V3.82629L0 15.3733ZM258 15.3733L238 3.82629V26.9203L258 15.3733ZM21.5 17.3733H35.8333V13.3733H21.5V17.3733ZM50.1667 17.3733H64.5V13.3733H50.1667V17.3733ZM78.8333 17.3733H93.1667V13.3733H78.8333V17.3733ZM107.5 17.3733H121.833V13.3733H107.5V17.3733ZM136.167 17.3733H150.5V13.3733H136.167V17.3733ZM164.833 17.3733H179.167V13.3733H164.833V17.3733ZM193.5 17.3733H207.833V13.3733H193.5V17.3733ZM222.167 17.3733H236.5V13.3733H222.167V17.3733Z" fill="#00A9FA" mask="url(#)"/>
<circle cx="129" cy="15.3733" r="11.5" fill="white" stroke="#00A9FA" stroke-width="7"/>
</svg>