<svg width="300" height="291" viewBox="0 0 300 291" fill="none" xmlns="http://www.w3.org/2000/svg">
<path d="M50.853 87.9828C52.5406 85.0598 55.0077 82.5868 57.988 80.7999L140.114 33.5096C146.172 29.992 153.582 29.9832 159.623 33.4709L241.76 80.8925C247.801 84.3803 251.595 90.8583 251.578 97.8636L251.504 189.798C251.535 198.52 246.866 206.607 239.297 210.941L159.619 256.917C153.561 260.434 146.053 260.387 140.012 256.899L57.973 209.534C51.9321 206.046 48.1373 199.568 48.1545 192.563L48.1436 97.8508C48.201 94.3763 49.1091 91.0033 50.853 87.9828ZM238.511 196.327C239.636 194.378 240.274 192.148 240.271 189.678L240.289 97.8412C240.316 94.8689 238.668 92.0985 236.134 90.6359L154.095 43.2705C151.562 41.8079 148.338 41.7657 145.778 43.2753L63.7495 90.6219C61.189 92.1316 59.6139 94.8597 59.5868 97.832L59.5976 192.544C59.5705 195.516 61.2187 198.287 63.752 199.749L145.791 247.115C148.325 248.577 151.548 248.62 154.108 247.11L233.633 201.176C235.717 200.041 237.329 198.373 238.511 196.327Z" fill="#00A9FA"/>
<path d="M145.582 36.1748L55.1152 87.8671L58.7107 199.64L153.974 254.64L244.775 197.367L245.259 88.5277L145.582 36.1748Z" fill="#00A9FA"/>
</svg>
